<mxfile host="app.diagrams.net" modified="2023-06-12T01:57:14.708Z" agent="Mozilla/5.0 (Windows NT 10.0; Win64; x64) AppleWebKit/537.36 (KHTML, like Gecko) Chrome/114.0.0.0 Safari/537.36 Edg/114.0.1823.43" version="21.3.8" etag="HowvnHJSeJP8HrXPctRW" type="github">
  <diagram name="第 1 页" id="0rGuxZ-5uzAj4LEa0YDP">
    <mxGraphModel>
      <root>
        <mxCell id="0" />
        <mxCell id="1" parent="0" />
      </root>
    </mxGraphModel>
  </diagram>
</mxfile>
